<?xml version="1.0" encoding="UTF-8" standalone="no"?>
<!-- Created with Inkscape (http://www.inkscape.org/) -->

<svg
   xmlns:dc="http://purl.org/dc/elements/1.1/"
   xmlns:cc="http://creativecommons.org/ns#"
   xmlns:rdf="http://www.w3.org/1999/02/22-rdf-syntax-ns#"
   xmlns:svg="http://www.w3.org/2000/svg"
   xmlns="http://www.w3.org/2000/svg"
   xmlns:sodipodi="http://sodipodi.sourceforge.net/DTD/sodipodi-0.dtd"
   xmlns:inkscape="http://www.inkscape.org/namespaces/inkscape"
   width="740"
   height="310"
   viewBox="0 0 740 310"
   version="1.1"
   id="SVGRoot"
   inkscape:version="0.92.2 5c3e80d, 2017-08-06"
   sodipodi:docname="logo_h.svg">
  <sodipodi:namedview
     id="base"
     pagecolor="#ffffff"
     bordercolor="#666666"
     borderopacity="1.0"
     inkscape:pageopacity="0.0"
     inkscape:pageshadow="2"
     inkscape:zoom="1"
     inkscape:cx="356.14571"
     inkscape:cy="148.44966"
     inkscape:document-units="px"
     inkscape:current-layer="layer2"
     showgrid="false"
     inkscape:window-width="1271"
     inkscape:window-height="744"
     inkscape:window-x="0"
     inkscape:window-y="1"
     inkscape:window-maximized="0"
     inkscape:snap-grids="true"
     inkscape:lockguides="true"
     showguides="false"
     inkscape:guide-bbox="true"
     inkscape:measure-start="0,0"
     inkscape:measure-end="0,0"
     fit-margin-top="0"
     fit-margin-left="0"
     fit-margin-right="0"
     fit-margin-bottom="0">
    <sodipodi:guide
       position="-371.875,618.75"
       orientation="-0.70710678,0.70710678"
       id="guide3805"
       inkscape:locked="true" />
    <inkscape:grid
       type="xygrid"
       id="grid4794"
       originx="-38.101382"
       originy="-145.15538" />
  </sodipodi:namedview>
  <defs
     id="defs3703" />
  <metadata
     id="metadata3706">
    <rdf:RDF>
      <cc:Work
         rdf:about="">
        <dc:format>image/svg+xml</dc:format>
        <dc:type
           rdf:resource="http://purl.org/dc/dcmitype/StillImage" />
        <dc:title></dc:title>
      </cc:Work>
    </rdf:RDF>
  </metadata>
  <g
     inkscape:groupmode="layer"
     id="layer2"
     inkscape:label="Calque 2"
     style="display:inline"
     transform="translate(-38.101382,-144.84462)">
    <g
       id="g4806"
       transform="translate(-19.099335,-7.0453876)"
       inkscape:export-xdpi="300.01773"
       inkscape:export-ydpi="300.01773">
      <g
         transform="matrix(0.61688346,0,0,0.61688346,57.824529,152.82458)"
         id="g4675"
         style="display:inline">
        <path
           inkscape:connector-curvature="0"
           style="fill:#ffffff;stroke:none"
           d="M 1.25977,1.25977 C -2.64893,5.16846 0,20.704 0,26 v 73 291 81 c 0,5.785 -2.96531,23.515 1.25977,27.74 C 5.48486,502.965 23.215,500 29,500 h 81 291 73 c 5.296,0 20.832,2.649 24.74,-1.26 C 502.965,494.515 500,476.785 500,471 V 390 99 26 C 500,20.704 502.649,5.16846 498.74,1.25977 494.832,-2.64893 479.296,0 474,0 H 401 110 29 C 23.215,0 5.48486,-2.96533 1.25977,1.25977 Z"
           id="path4661" />
        <path
           inkscape:connector-curvature="0"
           style="fill:#1393b3;stroke:none"
           d="m 107,313 c 20.597,-35.712 30.74,-82.203 44.707,-121 5.348,-14.855 17.147,-34.609 36.293,-27.919 12.609,4.406 18.058,18.321 24.401,28.919 14.063,23.497 26.597,52.389 44.599,73 13.596,-31.95 24.077,-65.457 36.188,-98 5.204,-13.984 8.61,-31.504 23.812,-38.048 18.695,-8.048 30.048,9.039 38.14,23.048 22.528,39.003 51.265,77.014 69.86,118 9.326,-13.943 11.988,-36.656 14.281,-53 C 448.358,153.278 427.963,84.2122 359,63.7417 280.633,40.4798 187.236,80.0256 128,130.861 99.0437,155.711 73.5187,187.509 71.3981,227 69.6619,259.334 90.6999,287.261 107,313 M 331,213 c -17.653,38.78 -27.692,80.924 -44.648,120 -5.833,13.443 -22.443,23.552 -36.351,14.874 C 217.434,327.556 216.209,269.852 185,249 c -4.702,30.914 -16.156,61.69 -23.874,92 -2.297,9.022 -10.558,25.953 -7.847,35 4.018,13.407 26.413,29.002 36.721,38.058 11.961,10.509 24.714,20.172 39,27.315 53.172,26.586 101.189,-7.498 135.074,-48.373 10.34,-12.473 27.53,-30.838 31.287,-47 2.187,-9.406 -10.467,-26.712 -14.611,-35 C 365.143,279.785 352.131,240.716 331,213 Z"
           id="path4663" />
      </g>
      <text
         id="text3803"
         y="309.85733"
         x="342.27106"
         style="font-style:normal;font-weight:normal;font-size:40px;line-height:1.25;font-family:sans-serif;letter-spacing:0px;word-spacing:0px;display:inline;fill:#222f3e;fill-opacity:1;stroke:none;stroke-opacity:1"
         xml:space="preserve"><tspan
           style="font-style:normal;font-variant:normal;font-weight:normal;font-stretch:normal;font-size:122.66666412px;font-family:Designosaur;-inkscape-font-specification:Designosaur;fill:#222f3e;fill-opacity:1;stroke:none;stroke-opacity:1"
           y="309.85733"
           x="342.27106"
           id="tspan3801"
           sodipodi:role="line">Langues</tspan></text>
      <text
         id="text4679"
         y="404.6261"
         x="318.11136"
         style="font-style:normal;font-weight:normal;font-size:40px;line-height:1.25;font-family:sans-serif;letter-spacing:0px;word-spacing:0px;display:inline;fill:#222f3e;fill-opacity:1;stroke:none;stroke-opacity:1"
         xml:space="preserve"><tspan
           style="font-style:normal;font-variant:normal;font-weight:normal;font-stretch:normal;font-size:96px;font-family:Designosaur;-inkscape-font-specification:Designosaur;fill:#222f3e;fill-opacity:1;stroke:none;stroke-opacity:1"
           y="404.6261"
           x="318.11136"
           id="tspan4677"
           sodipodi:role="line">Culture</tspan></text>
    </g>
  </g>
</svg>
